<?xml version="1.0" standalone="no"?>
<!DOCTYPE svg PUBLIC "-//W3C//DTD SVG 20010904//EN"
 "http://www.w3.org/TR/2001/REC-SVG-20010904/DTD/svg10.dtd">
<svg version="1.0" xmlns="http://www.w3.org/2000/svg"
 width="512.000000pt" height="512.000000pt" viewBox="0 0 512.000000 512.000000"

 preserveAspectRatio="xMidYMid meet">

<g transform="translate(0.000000,512.000000) scale(0.100000,-0.100000)"
fill="#fff" stroke="none">
<path d="M207 5030 c-57 -15 -89 -34 -134 -83 -75 -82 -92 -199 -43 -298 15
-30 194 -217 573 -596 l552 -553 -295 0 c-213 0 -311 -4 -353 -14 -222 -52
-291 -306 -122 -454 84 -74 66 -72 806 -72 639 0 660 1 713 20 63 24 125 81
155 144 21 41 21 56 21 723 l0 680 -31 61 c-63 126 -191 181 -320 137 -65 -22
-113 -67 -148 -137 l-31 -61 0 -324 c0 -177 -3 -323 -8 -323 -4 0 -256 249
-561 554 -361 361 -568 561 -595 574 -50 25 -127 34 -179 22z"/>
<path d="M4793 5030 c-23 -5 -59 -20 -80 -33 -21 -14 -283 -271 -583 -571
-300 -300 -548 -546 -552 -546 -5 0 -8 146 -8 323 l0 324 -31 61 c-35 70 -83
115 -148 137 -129 44 -257 -11 -320 -137 l-31 -61 0 -681 c0 -646 1 -683 19
-723 27 -59 93 -119 157 -143 53 -19 75 -20 713 -20 740 0 722 -2 806 72 174
153 94 417 -139 457 -35 6 -186 11 -347 11 l-284 0 552 553 c379 379 558 566
573 596 49 99 32 216 -44 299 -65 71 -159 101 -253 82z"/>
<path d="M466 2140 c-63 -25 -129 -89 -156 -153 -28 -63 -24 -142 9 -210 27
-55 101 -120 159 -138 24 -8 145 -14 356 -16 l319 -5 -550 -551 c-383 -383
-558 -566 -573 -596 -52 -105 -29 -232 56 -311 58 -53 104 -72 179 -73 119 -1
105 -12 715 598 305 305 558 555 562 555 5 0 8 -146 8 -323 l0 -324 31 -63
c48 -94 133 -148 234 -148 101 0 186 54 234 148 l31 63 0 681 c0 646 -1 683
-19 723 -27 59 -93 119 -157 143 -53 19 -74 20 -722 20 -634 -1 -669 -2 -716
-20z"/>
<path d="M3213 2139 c-61 -24 -128 -85 -154 -142 -18 -40 -19 -77 -19 -723 l0
-681 31 -63 c48 -94 133 -148 234 -148 101 0 186 54 234 148 l31 63 0 324 c0
177 3 323 8 323 4 0 256 -249 561 -554 392 -392 567 -560 599 -576 33 -17 63
-23 111 -23 80 0 124 17 185 73 85 79 108 206 56 311 -15 30 -190 213 -573
596 l-550 551 319 5 c211 2 332 8 356 16 58 18 133 83 159 137 31 65 36 142
14 201 -26 68 -95 138 -161 163 -53 19 -75 20 -722 19 -641 0 -669 -1 -719
-20z"/>
</g>
</svg>
